<?xml version="1.0" encoding="UTF-8"?>
<svg version="1.1" xmlns="http://www.w3.org/2000/svg" width="512" height="512">
<path d="M0 0 C4.36634138 2.41034365 7.05252003 5.42999329 9 10 C9.251849 12.25911808 9.251849 12.25911808 9.25447559 14.78468323 C9.26030779 15.75014761 9.26613998 16.71561199 9.27214891 17.71033287 C9.26836958 18.76828875 9.26459026 19.82624462 9.26069641 20.91625977 C9.26452196 22.04235468 9.26834751 23.16844959 9.27228898 24.32866859 C9.28263861 28.11629479 9.27862298 31.90376994 9.2746582 35.69140625 C9.27790925 38.40155986 9.28412173 41.11170497 9.29014587 43.82185364 C9.3029076 50.42942743 9.3046845 57.03696062 9.30234561 63.64454466 C9.30056291 69.01858858 9.30231108 74.39262016 9.30657005 79.7666626 C9.30716524 80.53143103 9.30776043 81.29619946 9.30837366 82.08414268 C9.30958542 83.63783678 9.31079956 85.19153087 9.31201603 86.74522495 C9.32289853 101.32470953 9.3207265 115.904171 9.31463119 130.48365688 C9.30946887 143.80606934 9.32069806 157.12840853 9.33972941 170.4508065 C9.35913099 184.1377082 9.36735926 197.82457529 9.36360615 211.51149082 C9.36169667 219.19242829 9.36415641 226.87330351 9.37832069 234.55422974 C9.39026553 241.09787565 9.39160524 247.64142105 9.37953053 254.18506843 C9.37366165 257.52027898 9.37412906 260.85515625 9.38453293 264.19037819 C9.39502522 267.81637758 9.38687896 271.44188886 9.3742218 275.06787109 C9.38159609 276.1079812 9.38897037 277.1480913 9.39656812 278.21971989 C9.2635713 296.42238231 1.71725057 312.15202879 -11 325 C-24.80395415 337.14255699 -41.85974822 342.78417787 -60.13671875 342.34765625 C-79.07362883 340.64352582 -95.67737685 332.20762942 -108.05078125 317.67578125 C-119.16196303 302.42295656 -123.8147198 284.97648972 -121.3125 266.1875 C-118.15372495 249.22215853 -109.6415887 233.60441507 -95.52734375 223.3828125 C-83.43067751 215.1306567 -71.06049752 210.59612564 -56.375 210.625 C-55.0761084 210.62741699 -55.0761084 210.62741699 -53.75097656 210.62988281 C-42.29312544 210.84527183 -33.30424775 213.84787613 -23 219 C-22.67 184.35 -22.34 149.7 -22 114 C-53.72241758 125.881948 -53.72241758 125.881948 -85.38830566 137.90982056 C-88.73186785 139.18983923 -92.07630319 140.46755625 -95.42089844 141.74487305 C-105.86676534 145.73528139 -116.31005371 149.73228864 -126.74672222 153.74669266 C-131.89238752 155.72593184 -137.03918579 157.70220398 -142.1867342 159.67654037 C-145.26329049 160.85683962 -148.33882788 162.03969564 -151.41311646 163.22589111 C-154.81017621 164.53656106 -158.20949747 165.84119164 -161.609375 167.14453125 C-162.62227097 167.53718674 -163.63516693 167.92984222 -164.67875671 168.33439636 C-166.06705437 168.86460136 -166.06705437 168.86460136 -167.48339844 169.40551758 C-168.28791443 169.71524002 -169.09243042 170.02496246 -169.92132568 170.34407043 C-172 171 -172 171 -175 171 C-174.98950402 172.44945605 -174.98950402 172.44945605 -174.97879601 173.92819405 C-174.80870705 197.48318871 -174.65069877 221.03824107 -174.50522423 244.59340096 C-174.43459551 255.98467672 -174.36009799 267.37590223 -174.27636719 278.76708984 C-174.20336403 288.70018541 -174.13774774 298.6332982 -174.08085597 308.56649959 C-174.05050185 313.82190648 -174.01654788 319.07723247 -173.97373581 324.33255386 C-173.93348027 329.28841709 -173.90317132 334.24424574 -173.88018608 339.2002182 C-173.87009422 341.01010118 -173.85650225 342.81996893 -173.83896446 344.62979507 C-173.61356843 368.43163692 -177.04792165 388.40768842 -193.875 406.375 C-208.23538161 419.85559538 -225.73762013 424.69690291 -244.91015625 424.3125 C-262.46929862 423.5240633 -277.69142662 415.01054829 -289.625 402.375 C-302.73011442 386.48156336 -306.92887229 368.27955412 -305 348 C-303.06578663 335.43191137 -297.23659949 324.5143948 -289 315 C-288.41605469 314.32066406 -287.83210938 313.64132812 -287.23046875 312.94140625 C-275.95950911 300.76876984 -260.37201422 294.18242325 -244 293 C-232.04791303 292.89199921 -220.57976342 294.61163173 -209.79492188 300.0769043 C-209.08203003 300.43705124 -208.36913818 300.79719818 -207.63464355 301.16825867 C-207.09521118 301.44273331 -206.55577881 301.71720795 -206 302 C-206.00460896 300.86747771 -206.00921793 299.73495543 -206.01396656 298.56811428 C-206.12493783 271.01819847 -206.20711615 243.46831163 -206.25906086 215.91821957 C-206.28484831 202.5952023 -206.32000937 189.27238213 -206.37719727 175.94946289 C-206.42701535 164.33794178 -206.45928709 152.72652756 -206.47044247 141.11490256 C-206.47696383 134.9659369 -206.49230273 128.81727705 -206.52865028 122.66840935 C-206.56258413 116.88098323 -206.57305801 111.09398893 -206.56553841 105.30647278 C-206.5669141 103.18242611 -206.57686181 101.05836502 -206.59602737 98.93440437 C-206.62092424 96.03300507 -206.61491709 93.13323365 -206.60127258 90.23179626 C-206.61583679 89.39228658 -206.630401 88.5527769 -206.64540654 87.68782753 C-206.56815425 81.60582024 -204.97925015 78.60992186 -201 74 C-198.73144531 72.49707031 -198.73144531 72.49707031 -196.328125 71.578125 C-195.38050293 71.20300781 -194.43288086 70.82789062 -193.45654297 70.44140625 C-192.39838379 70.04824219 -191.34022461 69.65507813 -190.25 69.25 C-188.45656108 68.55134206 -186.66312389 67.85267968 -184.86972046 67.15393066 C-182.80778528 66.35552331 -180.74183652 65.56831655 -178.67480469 64.78320312 C-173.45135571 62.79644554 -168.24542749 60.76539453 -163.0390625 58.734375 C-153.62060548 55.06415859 -144.19451113 51.4140389 -134.76506042 47.77217102 C-123.27769177 43.33548495 -111.7943735 38.88838575 -100.3125 34.4375 C-99.30933746 34.04872681 -98.30617493 33.65995361 -97.27261353 33.25939941 C-79.07974627 26.20784092 -60.90510177 19.11013136 -42.73971558 11.98809814 C-40.999245 11.3063041 -39.25838891 10.62549323 -37.51712036 9.94573975 C-33.31191194 8.30354929 -29.11355394 6.64701919 -24.92602539 4.96020508 C-24.11302475 4.63586487 -23.30002411 4.31152466 -22.46238708 3.97735596 C-20.94398448 3.37136494 -19.42793978 2.75941388 -17.91493225 2.14007568 C-12.01412449 -0.20191546 -6.30967087 -1.58976058 0 0 Z " fill="#F30051" transform="translate(305,0)"/>
<path d="M0 0 C1.22976563 -0.05607422 1.22976563 -0.05607422 2.484375 -0.11328125 C9.37482743 0.94753699 14.49199678 6.00179745 19.5 10.5 C20.8257679 11.67046692 22.15259667 12.83973327 23.48046875 14.0078125 C24.12419434 14.57532227 24.76791992 15.14283203 25.43115234 15.72753906 C27.84709922 17.83281787 30.32115661 19.85978001 32.8125 21.875 C34.62579095 23.35319694 36.43823594 24.832432 38.25 26.3125 C38.80574707 26.76447754 39.36149414 27.21645508 39.93408203 27.68212891 C62.90460504 46.46365127 79.03618822 72.42424917 82.25 102.3125 C82.58959735 108.19685621 82.62167705 114.08538175 82.62060547 119.97802734 C82.62502581 122.70341398 82.661594 125.42723713 82.69921875 128.15234375 C82.7050802 129.90103621 82.70905408 131.64973623 82.7109375 133.3984375 C82.73249405 134.60794571 82.73249405 134.60794571 82.75448608 135.84188843 C82.70188339 142.35299939 80.57134365 145.92667458 76 150.625 C71.78047627 153.2142532 67.88243259 153.85236367 63.09765625 152.87109375 C58.48209867 151.36695487 55.86318359 149.53379657 53.25 145.3125 C51.18330025 141.13443522 50.96991434 137.3429198 50.9765625 132.765625 C50.95622973 131.26431605 50.9353783 129.76301406 50.9140625 128.26171875 C50.89176304 125.93239492 50.87510459 123.60335037 50.86914062 121.27392578 C50.80790569 107.03986533 49.4484197 92.6122987 42.5 79.875 C42.15638428 79.21943115 41.81276855 78.5638623 41.45874023 77.88842773 C35.32425194 66.5457016 26.29825045 57.28012025 16.25 49.3125 C16.25368717 50.5088784 16.25737434 51.70525681 16.26117325 52.9378891 C16.34797225 81.39465521 16.41384568 109.8514195 16.45426132 138.30828825 C16.45926361 141.81766766 16.46444095 145.32704679 16.46972656 148.83642578 C16.4707758 149.53502329 16.47182505 150.23362079 16.47290608 150.95338792 C16.49026892 162.23641097 16.52178363 173.51935175 16.55861118 184.80232614 C16.59613579 196.39632725 16.61796105 207.99028064 16.62635398 219.58433962 C16.6315534 226.08956744 16.64371206 232.59460922 16.67292023 239.09977722 C16.70023197 245.23273285 16.70841324 251.36542721 16.70243073 257.49843788 C16.70352394 259.7396366 16.71138312 261.98084478 16.7268219 264.22199059 C16.88172895 287.88555796 12.79876429 306.51003457 -3.69921875 324.4296875 C-8.18022081 328.8168019 -13.07981305 331.7988866 -18.625 334.625 C-19.26050781 334.95064941 -19.89601563 335.27629883 -20.55078125 335.61181641 C-29.76568998 340.06862463 -38.86366384 341.85901369 -49.0625 341.75 C-50.56635254 341.73864014 -50.56635254 341.73864014 -52.10058594 341.72705078 C-70.77852736 341.31446162 -85.98095655 333.32758486 -98.97265625 320.0390625 C-110.28551174 306.91702202 -115.52113711 289.9944662 -115.0234375 272.8046875 C-113.64060456 255.14393543 -106.07367352 238.62186912 -92.84765625 226.6953125 C-80.33809232 216.22209944 -65.9393134 210.90718445 -49.625 210.9375 C-48.71210205 210.93911133 -47.7992041 210.94072266 -46.85864258 210.94238281 C-37.09854404 211.11696064 -28.30766102 212.95161177 -19.54223633 217.39160156 C-18.82973221 217.75143127 -18.11722809 218.11126099 -17.38313293 218.48199463 C-16.57473213 218.89309479 -16.57473213 218.89309479 -15.75 219.3125 C-15.75184359 218.26851295 -15.75368717 217.22452591 -15.75558662 216.14890289 C-15.79999094 190.74331246 -15.83285402 165.33772706 -15.85362434 139.93210602 C-15.86393575 127.64612956 -15.87799354 115.36017875 -15.90087891 103.07421875 C-15.92081687 92.36545593 -15.93371742 81.65671168 -15.93817699 70.94793081 C-15.94078367 65.2780334 -15.94690778 59.6081891 -15.96146011 53.93830872 C-15.97505038 48.59993802 -15.97921969 43.26164227 -15.97621536 37.92325592 C-15.97676487 35.96574242 -15.98073368 34.00822637 -15.98841095 32.05072784 C-15.99839477 29.37344881 -15.99595633 26.69645089 -15.99050903 24.01916504 C-15.99633472 23.24871432 -16.0021604 22.4782636 -16.00816262 21.68446589 C-15.97722794 16.04037497 -15.60890534 10.04131091 -12.34765625 5.25390625 C-8.21478723 1.54168548 -5.49673037 0.16217062 0 0 Z " fill="#88E0F9" transform="translate(429.75,170.6875)"/>
<path d="M0 0 C0 34.98 0 69.96 0 106 C0.66 106.33 1.32 106.66 2 107 C-2.26767998 108.67482275 -6.53963493 110.33845499 -10.8125 112 C-12.02744141 112.47695312 -13.24238281 112.95390625 -14.49414062 113.4453125 C-15.65751953 113.89648438 -16.82089844 114.34765625 -18.01953125 114.8125 C-19.62985229 115.44091797 -19.62985229 115.44091797 -21.27270508 116.08203125 C-24 117 -24 117 -27 117 C-26.98950402 118.44945605 -26.98950402 118.44945605 -26.97879601 119.92819405 C-26.80870705 143.48318871 -26.65069877 167.03824107 -26.50522423 190.59340096 C-26.43459551 201.98467672 -26.36009799 213.37590223 -26.27636719 224.76708984 C-26.20336403 234.70018541 -26.13774774 244.6332982 -26.08085597 254.56649959 C-26.05050185 259.82190648 -26.01654788 265.07723247 -25.97373581 270.33255386 C-25.93348027 275.28841709 -25.90317132 280.24424574 -25.88018608 285.2002182 C-25.87009422 287.01010118 -25.85650225 288.81996893 -25.83896446 290.62979507 C-25.61356843 314.43163692 -29.04792165 334.40768842 -45.875 352.375 C-60.23538161 365.85559538 -77.73762013 370.69690291 -96.91015625 370.3125 C-114.46929862 369.5240633 -129.69142662 361.01054829 -141.625 348.375 C-154.73011442 332.48156336 -158.92887229 314.27955412 -157 294 C-155.06578663 281.43191137 -149.23659949 270.5143948 -141 261 C-140.41605469 260.32066406 -139.83210938 259.64132812 -139.23046875 258.94140625 C-127.95950911 246.76876984 -112.37201422 240.18242325 -96 239 C-84.04791303 238.89199921 -72.57976342 240.61163173 -61.79492188 246.0769043 C-61.08203003 246.43705124 -60.36913818 246.79719818 -59.63464355 247.16825867 C-59.09521118 247.44273331 -58.55577881 247.71720795 -58 248 C-58.00460896 246.86747771 -58.00921793 245.73495543 -58.01396656 244.56811428 C-58.12493783 217.01819847 -58.20711615 189.46831163 -58.25906086 161.91821957 C-58.28484831 148.5952023 -58.32000937 135.27238213 -58.37719727 121.94946289 C-58.42701535 110.33794178 -58.45928709 98.72652756 -58.47044247 87.11490256 C-58.47696383 80.9659369 -58.49230273 74.81727705 -58.52865028 68.66840935 C-58.56258413 62.88098323 -58.57305801 57.09398893 -58.56553841 51.30647278 C-58.5669141 49.18242611 -58.57686181 47.05836502 -58.59602737 44.93440437 C-58.62092424 42.03300507 -58.61491709 39.13323365 -58.60127258 36.23179626 C-58.61583679 35.39228658 -58.630401 34.5527769 -58.64540654 33.68782753 C-58.57175672 27.88943915 -57.07966554 24.18519889 -53 20 C-50.31884766 18.33837891 -50.31884766 18.33837891 -47.4140625 17.2265625 C-45.78597656 16.58424683 -45.78597656 16.58424683 -44.125 15.92895508 C-42.3925 15.28349731 -42.3925 15.28349731 -40.625 14.625 C-39.43648438 14.16311279 -38.24796875 13.70122559 -37.0234375 13.2253418 C-34.56749615 12.27252147 -32.10813355 11.32847484 -29.64550781 10.39306641 C-26.15350443 9.05865901 -22.68028022 7.68508967 -19.2109375 6.29296875 C-17.14078867 5.46573613 -15.07048396 4.63889345 -13 3.8125 C-12.03400879 3.42594238 -11.06801758 3.03938477 -10.07275391 2.64111328 C-9.18249512 2.29161621 -8.29223633 1.94211914 -7.375 1.58203125 C-6.59898437 1.27499268 -5.82296875 0.9679541 -5.0234375 0.65161133 C-3 0 -3 0 0 0 Z " fill="#FF9359" transform="translate(157,54)"/>
<path d="M0 0 C16.72378549 12.15775195 28.97560936 26.65378565 32.60131836 47.63452148 C35.39293317 66.28626336 31.93979319 82.49948125 21.08203125 98 C9.49323529 112.62878218 -6.11764384 121.29244283 -24.625 123.7265625 C-42.1777479 125.2455503 -58.81840446 120.65945392 -72.875 109.9140625 C-86.71740718 98.15022764 -95.54425987 83.15049425 -97.27880859 64.92236328 C-98.66384033 46.84876448 -93.75809428 29.14583797 -81.98828125 15.14038086 C-62.40621242 -6.96308974 -26.30316228 -16.24021004 0 0 Z " fill="#FE575F" transform="translate(280.625,218.2734375)"/>
<path d="M0 0 C1.22976563 -0.05607422 1.22976563 -0.05607422 2.484375 -0.11328125 C9.37482743 0.94753699 14.49199678 6.00179745 19.5 10.5 C20.8257679 11.67046692 22.15259667 12.83973327 23.48046875 14.0078125 C24.12419434 14.57532227 24.76791992 15.14283203 25.43115234 15.72753906 C27.84709922 17.83281787 30.32115661 19.85978001 32.8125 21.875 C34.62579095 23.35319694 36.43823594 24.832432 38.25 26.3125 C39.08362061 26.99046631 39.08362061 26.99046631 39.93408203 27.68212891 C62.90460504 46.46365127 79.03618822 72.42424917 82.25 102.3125 C82.58959735 108.19685621 82.62167705 114.08538175 82.62060547 119.97802734 C82.62502581 122.70341398 82.661594 125.42723713 82.69921875 128.15234375 C82.7050802 129.90103621 82.70905408 131.64973623 82.7109375 133.3984375 C82.72530853 134.20477631 82.73967957 135.01111511 82.75448608 135.84188843 C82.70188339 142.35299939 80.57134365 145.92667458 76 150.625 C71.78047627 153.2142532 67.88243259 153.85236367 63.09765625 152.87109375 C58.48209867 151.36695487 55.86318359 149.53379657 53.25 145.3125 C51.18330025 141.13443522 50.96991434 137.3429198 50.9765625 132.765625 C50.95622973 131.26431605 50.9353783 129.76301406 50.9140625 128.26171875 C50.89176304 125.93239492 50.87510459 123.60335037 50.86914062 121.27392578 C50.80790569 107.03986533 49.4484197 92.6122987 42.5 79.875 C42.15638428 79.21943115 41.81276855 78.5638623 41.45874023 77.88842773 C35.30990767 66.51917891 26.28110061 57.33738049 16.25 49.3125 C15.92 119.9325 15.59 190.5525 15.25 263.3125 C13.6526794 260.11785879 12.31094056 256.99980982 11 253.6875 C6.98157689 244.06197488 0.86724619 231.11290209 -8.93920612 226.22025967 C-11.94524483 224.53950795 -13.68228855 223.09166588 -15.75 220.3125 C-17.12492575 213.83729706 -16.90882452 207.41961558 -16.8034668 200.82641602 C-16.80420263 198.81867982 -16.80887576 196.81094179 -16.81718445 194.80322266 C-16.82830264 189.35837424 -16.78363049 183.91525786 -16.72840858 178.47073102 C-16.67952031 172.769034 -16.6801648 167.06733695 -16.67500305 161.36546326 C-16.65935548 151.78948126 -16.61059525 142.21414659 -16.53881836 132.63842773 C-16.43778051 119.14451884 -16.40011263 105.65096128 -16.37336481 92.15673172 C-16.35230206 82.7999538 -16.31530679 73.44322818 -16.27580667 64.08651233 C-16.26640407 61.82054183 -16.25752703 59.55456909 -16.24917197 57.28859448 C-16.22502753 50.82614453 -16.19101256 44.36390648 -16.14085579 37.9016037 C-16.12705453 35.94572179 -16.11652187 33.98981361 -16.10953522 32.03389549 C-16.09927412 29.35911137 -16.07676176 26.68469935 -16.05107117 24.01002502 C-16.05075777 23.24045819 -16.05044438 22.47089136 -16.05012149 21.67800432 C-15.9761599 16.04725463 -15.59914742 10.0269866 -12.34765625 5.25390625 C-8.21478723 1.54168548 -5.49673037 0.16217062 0 0 Z " fill="#89E1F9" transform="translate(429.75,170.6875)"/>
<path d="M0 0 C0 34.98 0 69.96 0 106 C0.99 106.495 0.99 106.495 2 107 C-2.26767998 108.67482275 -6.53963493 110.33845499 -10.8125 112 C-12.02744141 112.47695312 -13.24238281 112.95390625 -14.49414062 113.4453125 C-15.65751953 113.89648438 -16.82089844 114.34765625 -18.01953125 114.8125 C-19.62985229 115.44091797 -19.62985229 115.44091797 -21.27270508 116.08203125 C-24 117 -24 117 -27 117 C-27 175.41 -27 233.82 -27 294 C-28.76618708 290.46762585 -29.96345871 287.17646571 -31.1875 283.4375 C-34.70232383 273.51147259 -40.18757877 264.19176556 -48 257 C-48.8266192 256.61926079 -49.65323839 256.23852158 -50.50490665 255.84624481 C-53.8303948 254.26677263 -55.68607128 252.89201624 -58 250 C-60.00576406 243.26698778 -59.31292333 235.78791496 -59.21459961 228.84570312 C-59.21996625 226.65899741 -59.22966348 224.47229867 -59.24336243 222.28562927 C-59.26758251 216.3532412 -59.22935986 210.42273615 -59.17859721 204.49057579 C-59.13464927 198.2812149 -59.14348282 192.07191147 -59.145401 185.86242676 C-59.14041958 174.76699453 -59.08878527 163.67237092 -59.01589072 152.57719547 C-58.95078392 142.52449872 -58.92340551 132.47233585 -58.92651367 122.41943359 C-58.93082534 108.25153226 -58.901162 94.08404104 -58.85049748 79.91623497 C-58.83984474 76.21909288 -58.83629212 72.5220004 -58.8343029 68.82484436 C-58.82927654 63.01334072 -58.79872052 57.20250507 -58.74847221 51.391222 C-58.73388024 49.2591721 -58.72771374 47.1270453 -58.73060989 44.99494743 C-58.73306852 42.08279729 -58.70474481 39.17251024 -58.66856384 36.26062012 C-58.67630685 35.41810338 -58.68404986 34.57558663 -58.69202751 33.70753908 C-58.57324104 27.91331775 -57.07629177 24.18606352 -53 20 C-50.31884766 18.33837891 -50.31884766 18.33837891 -47.4140625 17.2265625 C-45.78597656 16.58424683 -45.78597656 16.58424683 -44.125 15.92895508 C-42.97 15.4986499 -41.815 15.06834473 -40.625 14.625 C-38.84222656 13.93216919 -38.84222656 13.93216919 -37.0234375 13.2253418 C-34.56749615 12.27252147 -32.10813355 11.32847484 -29.64550781 10.39306641 C-26.15350443 9.05865901 -22.68028022 7.68508967 -19.2109375 6.29296875 C-17.14078867 5.46573613 -15.07048396 4.63889345 -13 3.8125 C-12.03400879 3.42594238 -11.06801758 3.03938477 -10.07275391 2.64111328 C-9.18249512 2.29161621 -8.29223633 1.94211914 -7.375 1.58203125 C-6.59898437 1.27499268 -5.82296875 0.9679541 -5.0234375 0.65161133 C-3 0 -3 0 0 0 Z " fill="#FE5760" transform="translate(157,54)"/>
<path d="M0 0 C19.559288 0 33.18353984 6.38688237 47.04296875 20.0078125 C59.37829274 33.45957862 65.81533562 50.61095199 65.3125 68.73828125 C64.31363043 86.90522158 55.85833061 102.53608203 43 115.125 C30.73447648 125.58677006 15.85376128 130 0 130 C0 87.1 0 44.2 0 0 Z " fill="#78AFF8" transform="translate(381,382)"/>
</svg>
